<svg width="895" height="507" viewBox="0 0 895 507" fill="none" xmlns="http://www.w3.org/2000/svg">
<path d="M584 1C540.486 38.6577 455.251 135.378 462.426 221" stroke="url(#paint0_linear_166_12)"/>
<path d="M526.415 7.65246C481.243 45.7177 445.075 139.375 449.58 228.725" stroke="url(#paint1_linear_166_12)"/>
<path d="M471 7C452.275 61.1132 437 201.726 437 246" stroke="url(#paint2_linear_166_12)"/>
<path d="M301.088 2.3626C345.318 40.368 428.503 157.431 423.466 245.976" stroke="url(#paint3_linear_166_12)"/>
<path d="M360.853 2.12668C405.702 39.8658 438.324 165.766 434.039 254.527" stroke="url(#paint4_linear_166_12)"/>
<path d="M414 4C433.253 63.3909 435 212.407 435 261" stroke="url(#paint5_linear_166_12)"/>
<path d="M187.501 237.63H198.501V251.106H187.501V237.63ZM187 251.736H199V237H187V251.736ZM194.86 242.252C194.86 242.202 194.875 242.177 194.92 242.177H195.705C195.745 242.177 195.765 242.195 195.765 242.252V247.221C195.765 247.271 195.755 247.296 195.705 247.296H194.931C194.881 247.296 194.866 247.265 194.866 247.214V242.252H194.86H194.86ZM194.805 240.823C194.805 240.652 194.859 240.489 194.955 240.369C195.05 240.248 195.18 240.18 195.315 240.18C195.45 240.18 195.58 240.248 195.676 240.369C195.771 240.489 195.825 240.652 195.825 240.823C195.83 240.91 195.82 240.997 195.795 241.079C195.771 241.16 195.733 241.234 195.683 241.295C195.634 241.356 195.574 241.403 195.509 241.433C195.444 241.462 195.374 241.473 195.305 241.465C195.238 241.47 195.17 241.457 195.107 241.427C195.044 241.396 194.986 241.349 194.939 241.288C194.892 241.227 194.855 241.154 194.832 241.074C194.809 240.993 194.8 240.908 194.806 240.823H194.805ZM192.555 244.324C192.415 243.623 192.084 242.102 191.96 241.365H191.95C191.845 242.102 191.581 243.348 191.371 244.324H192.555ZM191.165 245.345L190.77 247.234C190.76 247.284 190.745 247.297 190.695 247.297H189.961C189.911 247.297 189.901 247.278 189.911 247.202L191.331 240.941C191.365 240.77 191.382 240.595 191.381 240.418C191.381 240.374 191.396 240.355 191.421 240.355H192.471C192.506 240.355 192.521 240.368 192.531 240.418L194.121 247.213C194.131 247.263 194.121 247.295 194.081 247.295H193.251C193.211 247.295 193.186 247.283 193.176 247.241L192.766 245.346H191.166L191.165 245.345Z" fill="url(#paint6_linear_166_12)"/>
<ellipse cx="452" cy="342" rx="271" ry="165" fill="url(#paint7_radial_166_12)"/>
<circle cx="440" cy="291" r="90" fill="url(#paint8_linear_166_12)"/>
<path d="M880.5 344.5C880.5 362.832 868.33 380.393 846.091 396.448C823.862 412.494 791.665 426.966 751.835 439.128C672.179 463.449 562.105 478.5 440.5 478.5C318.895 478.5 208.821 463.449 129.165 439.128C89.3346 426.966 57.1376 412.494 34.9093 396.448C12.6695 380.393 0.5 362.832 0.5 344.5C0.5 326.168 12.6695 308.607 34.9093 292.552C57.1376 276.506 89.3346 262.034 129.165 249.872C208.821 225.551 318.895 210.5 440.5 210.5C562.105 210.5 672.179 225.551 751.835 249.872C791.665 262.034 823.862 276.506 846.091 292.552C868.33 308.607 880.5 326.168 880.5 344.5Z" stroke="url(#paint9_linear_166_12)"/>
<path d="M826.5 344.5C826.5 362.863 815.931 380.427 796.661 396.469C777.393 412.509 749.482 426.975 714.949 439.134C645.886 463.451 550.445 478.5 445 478.5C339.555 478.5 244.114 463.451 175.051 439.134C140.518 426.975 112.607 412.509 93.3393 396.469C74.0687 380.427 63.5 362.863 63.5 344.5C63.5 326.137 74.0687 308.573 93.3393 292.531C112.607 276.491 140.518 262.025 175.051 249.866C244.114 225.549 339.555 210.5 445 210.5C550.445 210.5 645.886 225.549 714.949 249.866C749.482 262.025 777.393 276.491 796.661 292.531C815.931 308.573 826.5 326.137 826.5 344.5Z" stroke="url(#paint10_linear_166_12)"/>
<path d="M802.5 344.5C802.5 362.882 792.877 380.45 775.354 396.485C757.831 412.52 732.448 426.983 701.039 439.14C638.225 463.452 551.414 478.5 455.5 478.5C359.586 478.5 272.775 463.452 209.961 439.14C178.552 426.983 153.169 412.52 135.646 396.485C118.123 380.45 108.5 362.882 108.5 344.5C108.5 326.118 118.123 308.55 135.646 292.515C153.169 276.48 178.552 262.017 209.961 249.86C272.775 225.548 359.586 210.5 455.5 210.5C551.414 210.5 638.225 225.548 701.039 249.86C732.448 262.017 757.831 276.48 775.354 292.515C792.877 308.55 802.5 326.118 802.5 344.5Z" stroke="url(#paint11_linear_166_12)"/>
<path d="M597.5 275.5C597.5 351.114 529.275 412.5 445 412.5C360.725 412.5 292.5 351.114 292.5 275.5C292.5 199.886 360.725 138.5 445 138.5C529.275 138.5 597.5 199.886 597.5 275.5Z" stroke="url(#paint12_linear_166_12)"/>
<path d="M591.5 311C591.5 333.38 575.177 353.746 548.555 368.546C521.95 383.336 485.162 392.5 444.5 392.5C403.838 392.5 367.05 383.336 340.445 368.546C313.823 353.746 297.5 333.38 297.5 311C297.5 288.62 313.823 268.254 340.445 253.454C367.05 238.664 403.838 229.5 444.5 229.5C485.162 229.5 521.95 238.664 548.555 253.454C575.177 268.254 591.5 288.62 591.5 311Z" stroke="url(#paint13_linear_166_12)"/>
<path d="M853.093 298.749C853.093 297.196 851.426 295.725 848.87 294.813C849.46 291.776 849.198 289.358 848.043 288.584C847.763 288.401 847.446 288.309 847.125 288.317V289.382C847.314 289.382 847.465 289.426 847.593 289.507C848.149 289.88 848.391 291.297 848.203 293.122C848.158 293.571 848.084 294.044 847.994 294.526C847.138 294.285 846.269 294.112 845.393 294.006C844.872 293.166 844.302 292.368 843.69 291.617C845.025 290.17 846.278 289.378 847.131 289.378V288.312C846.004 288.312 844.529 289.249 843.038 290.872C841.548 289.26 840.073 288.332 838.947 288.332V289.396C839.795 289.396 841.052 290.185 842.388 291.622C841.814 292.325 841.241 293.122 840.696 294.006C839.818 294.11 838.948 294.286 838.091 294.531C838.001 294.074 837.929 293.612 837.878 293.146C837.685 291.321 837.923 289.903 838.476 289.526C838.598 289.44 838.758 289.401 838.947 289.401V288.337C838.603 288.337 838.291 288.423 838.022 288.603C836.87 289.378 836.613 291.789 837.206 294.818C834.659 295.736 833 297.201 833 298.749C833 300.301 834.667 301.772 837.223 302.683C836.633 305.722 836.895 308.139 838.05 308.912C838.316 309.094 838.628 309.18 838.971 309.18C840.098 309.18 841.572 308.244 843.063 306.62C844.554 308.234 846.028 309.16 847.155 309.16C847.478 309.168 847.797 309.076 848.08 308.893C849.231 308.12 849.489 305.708 848.895 302.679C851.435 301.767 853.093 300.296 853.093 298.749ZM847.76 295.563C847.601 296.201 847.417 296.831 847.208 297.449C846.865 296.673 846.489 295.917 846.081 295.185C846.663 295.286 847.224 295.41 847.761 295.563H847.76ZM845.885 300.65C845.578 301.274 845.249 301.883 844.898 302.474C843.669 302.601 842.433 302.602 841.204 302.479C840.499 301.305 839.882 300.062 839.361 298.763C839.882 297.462 840.495 296.214 841.196 295.034C842.425 294.907 843.66 294.905 844.889 295.028C845.229 295.596 845.562 296.203 845.881 296.844C846.192 297.469 846.475 298.103 846.733 298.744C846.472 299.392 846.189 300.028 845.885 300.65ZM847.208 300.029C847.429 300.668 847.618 301.309 847.773 301.93C847.237 302.083 846.671 302.212 846.086 302.311C846.492 301.573 846.866 300.811 847.208 300.029ZM843.055 305.125C842.674 304.666 842.293 304.156 841.916 303.596C842.285 303.616 842.661 303.63 843.042 303.63C843.428 303.63 843.808 303.621 844.181 303.596C843.813 304.156 843.432 304.666 843.055 305.125ZM840.007 302.311C839.443 302.216 838.883 302.09 838.328 301.934C838.48 301.318 838.668 300.683 838.881 300.048C839.049 300.429 839.226 300.812 839.418 301.194C839.611 301.576 839.807 301.949 840.007 302.311ZM843.034 292.372C843.415 292.831 843.796 293.342 844.173 293.901C843.804 293.882 843.428 293.867 843.047 293.867C842.661 293.867 842.281 293.877 841.908 293.901C842.276 293.342 842.657 292.831 843.034 292.372ZM840.003 295.186C839.597 295.923 839.223 296.683 838.881 297.464C838.666 296.841 838.478 296.207 838.316 295.563C838.852 295.414 839.418 295.286 840.003 295.186ZM836.297 301.165C834.847 300.445 833.909 299.498 833.909 298.749C833.909 297.999 834.847 297.048 836.297 296.332C836.649 296.155 837.034 295.997 837.431 295.85C837.665 296.785 837.972 297.76 838.352 298.758C837.993 299.698 837.69 300.665 837.444 301.652C837.055 301.512 836.672 301.349 836.297 301.165ZM838.5 307.99C837.944 307.619 837.702 306.199 837.89 304.375C837.935 303.926 838.009 303.453 838.099 302.97C838.902 303.2 839.778 303.377 840.7 303.492C841.222 304.331 841.791 305.129 842.404 305.88C841.068 307.327 839.815 308.12 838.963 308.12C838.802 308.122 838.643 308.077 838.5 307.991V307.99ZM848.216 304.351C848.408 306.176 848.17 307.594 847.617 307.971C847.495 308.057 847.335 308.095 847.146 308.095C846.298 308.095 845.041 307.307 843.705 305.869C844.316 305.121 844.881 304.325 845.397 303.487C846.275 303.382 847.145 303.206 848.002 302.962C848.097 303.444 848.169 303.907 848.216 304.351ZM849.792 301.165C849.44 301.342 849.055 301.5 848.658 301.647C848.407 300.655 848.1 299.683 847.737 298.739C848.113 297.746 848.416 296.776 848.645 295.845C849.035 295.986 849.419 296.148 849.796 296.332C851.246 297.053 852.184 297.999 852.184 298.749C852.18 299.498 851.242 300.449 849.792 301.165Z" fill="url(#paint14_linear_166_12)"/>
<path d="M843.042 300.931C843.539 300.931 844.015 300.701 844.366 300.292C844.717 299.882 844.914 299.327 844.914 298.748C844.914 298.169 844.717 297.614 844.366 297.204C844.015 296.795 843.539 296.565 843.042 296.565C842.546 296.565 842.07 296.795 841.719 297.204C841.368 297.614 841.17 298.169 841.17 298.748C841.17 299.327 841.368 299.882 841.719 300.292C842.07 300.701 842.546 300.931 843.042 300.931Z" fill="url(#paint15_linear_166_12)"/>
<path d="M782.607 257.991H772.393C771.624 257.991 771 258.719 771 259.616V271.527C771 272.424 771.624 273.152 772.393 273.152H782.607C783.376 273.152 784 272.424 784 271.527V259.616C784 258.719 783.376 257.991 782.607 257.991ZM778.075 269.815C778.075 271.29 777.332 271.964 776.249 271.964C775.271 271.964 774.706 271.375 774.415 270.661L775.411 269.96C775.602 270.356 775.776 270.691 776.197 270.691C776.598 270.691 776.853 270.509 776.853 269.795V264.952H778.075V269.815ZM780.965 271.964C779.83 271.964 779.096 271.334 778.739 270.509L779.734 269.839C779.996 270.336 780.338 270.705 780.939 270.705C781.444 270.705 781.769 270.411 781.769 270.001C781.769 269.514 781.438 269.341 780.878 269.054L780.573 268.901C779.691 268.465 779.108 267.913 779.108 266.752C779.108 265.683 779.807 264.871 780.895 264.871C781.673 264.871 782.23 265.186 782.63 266.011L781.679 266.722C781.47 266.285 781.243 266.113 780.892 266.113C780.535 266.113 780.309 266.377 780.309 266.722C780.309 267.148 780.535 267.321 781.06 267.588L781.365 267.741C782.404 268.258 782.987 268.79 782.987 269.981C782.987 271.26 782.123 271.964 780.965 271.964Z" fill="url(#paint16_linear_166_12)"/>
<path d="M886.996 362.948C886.756 362.948 886.513 362.869 886.302 362.72L884.092 361.115C883.763 360.886 883.924 360.807 884.031 360.763C884.472 360.574 884.561 360.535 885.03 360.205C885.081 360.17 885.145 360.183 885.195 360.222L886.893 361.458C886.953 361.502 887.039 361.502 887.097 361.458L893.711 356.771C893.772 356.727 893.811 356.639 893.811 356.551V347.177C893.811 347.085 893.772 347.001 893.707 346.953L887.097 342.271C887.036 342.227 886.953 342.227 886.893 342.271L880.286 346.957C880.221 347.001 880.182 347.089 880.182 347.182V356.551C880.182 356.639 880.221 356.727 880.286 356.767L882.098 358.05C883.082 358.653 883.684 357.945 883.684 357.228V347.978C883.684 347.846 883.77 347.744 883.877 347.744H884.715C884.819 347.744 884.909 347.846 884.909 347.978V357.233C884.909 358.842 884.192 359.765 882.95 359.765C882.567 359.765 882.266 359.765 881.428 359.255L879.695 358.028C879.265 357.725 879 357.158 879 356.547V347.177C879 346.571 879.265 345.999 879.695 345.696L886.302 341.009C886.721 340.718 887.276 340.718 887.691 341.009L894.305 345.7C894.735 346.003 895 346.571 895 347.182V356.551C895 357.158 894.735 357.725 894.305 358.033L887.691 362.72C887.48 362.869 887.24 362.948 886.996 362.948ZM892.336 353.711C892.336 351.957 891.369 351.491 889.338 351.161C887.283 350.827 887.075 350.655 887.075 350.066C887.075 349.578 887.251 348.927 888.773 348.927C890.13 348.927 890.631 349.288 890.839 350.413C890.857 350.519 890.936 350.598 891.025 350.598H891.885C891.938 350.598 891.988 350.572 892.024 350.523C892.06 350.475 892.078 350.409 892.074 350.343C891.942 348.404 890.893 347.503 888.773 347.503C886.885 347.503 885.761 348.479 885.761 350.119C885.761 351.895 886.882 352.387 888.69 352.607C890.857 352.867 891.025 353.258 891.025 353.781C891.025 354.687 890.431 355.074 889.038 355.074C887.286 355.074 886.903 354.533 886.774 353.465C886.76 353.35 886.681 353.267 886.585 353.267H885.729C885.621 353.267 885.539 353.372 885.539 353.5C885.539 354.867 886.144 356.498 889.041 356.498C891.132 356.494 892.336 355.478 892.336 353.711Z" fill="url(#paint17_linear_166_12)"/>
<path fill-rule="evenodd" clip-rule="evenodd" d="M769.035 428.254C767.353 428.254 766 429.9 766 431.916C766 433.142 766.501 434.231 767.27 434.896C766.873 435.242 766.552 435.692 766.331 436.209C766.111 436.727 765.997 437.297 766 437.875C766 439.101 766.501 440.189 767.27 440.854C766.873 441.201 766.552 441.65 766.331 442.168C766.111 442.685 765.997 443.256 766 443.833C766 445.85 767.353 447.496 769.035 447.496C770.717 447.496 772.071 445.85 772.071 443.833V440.737C772.602 441.254 773.272 441.537 773.965 441.538C775.647 441.537 777 439.891 777 437.875C777.003 437.297 776.889 436.727 776.669 436.209C776.448 435.692 776.127 435.242 775.73 434.896C776.127 434.549 776.448 434.099 776.669 433.582C776.889 433.064 777.003 432.494 777 431.916C777 429.9 775.647 428.254 773.965 428.254H769.035ZM767.141 431.916C767.141 430.641 767.994 429.619 769.035 429.619H770.929V434.213H769.035C767.994 434.213 767.141 433.191 767.141 431.916ZM773.965 434.212H772.071V429.618H773.965C775.006 429.618 775.859 430.641 775.859 431.916C775.859 433.191 775.006 434.212 773.965 434.212ZM767.141 437.875C767.141 436.6 767.995 435.578 769.036 435.578H770.93V440.172H769.035C767.994 440.172 767.141 439.15 767.141 437.875H767.141ZM772.071 437.875C772.071 436.6 772.924 435.578 773.965 435.578C775.007 435.578 775.86 436.599 775.86 437.875C775.86 439.15 775.007 440.172 773.965 440.172C772.924 440.172 772.071 439.15 772.071 437.875H772.071ZM767.141 443.833C767.141 442.559 767.995 441.537 769.036 441.537H770.93V443.833C770.93 445.109 770.078 446.13 769.036 446.13C767.995 446.13 767.141 445.109 767.141 443.833Z" fill="url(#paint18_linear_166_12)"/>
<path d="M837.334 360.615H828.256C827.01 360.615 826 361.793 826 363.246V373.437C826 374.89 827.01 376.068 828.256 376.068H837.334C838.58 376.068 839.591 374.89 839.591 373.437V363.246C839.591 361.793 838.58 360.615 837.334 360.615Z" fill="url(#paint19_linear_166_12)"/>
<path d="M833.144 364.68L831.449 367.944L833.263 371.41C833.275 371.434 833.278 371.463 833.272 371.49C833.269 371.501 833.263 371.504 833.254 371.505L833.244 371.504L833.231 371.504C833.224 371.504 833.217 371.504 833.208 371.506H831.9L831.875 371.506C831.804 371.503 831.753 371.492 831.722 371.431C831.601 371.156 831.48 370.882 831.358 370.607C831.248 370.363 831.136 370.12 831.021 369.879L830.97 369.773C830.832 369.487 830.697 369.2 830.564 368.912H830.555C830.433 369.197 830.307 369.481 830.177 369.762C830.046 370.046 829.917 370.328 829.789 370.607C829.662 370.888 829.531 371.166 829.397 371.442C829.376 371.498 829.34 371.51 829.29 371.512L829.27 371.512H828.021L828.015 371.513L827.997 371.514C827.988 371.515 827.982 371.513 827.98 371.495C827.976 371.469 827.981 371.443 827.993 371.421L829.753 368.05L828.039 364.669C828.021 364.641 828.018 364.618 828.03 364.6C828.037 364.591 828.045 364.584 828.054 364.58C828.064 364.575 828.074 364.573 828.085 364.574H829.37C829.398 364.572 829.426 364.577 829.452 364.59C829.474 364.604 829.493 364.624 829.507 364.648C829.616 364.932 829.738 365.215 829.872 365.499C830.004 365.78 830.139 366.06 830.277 366.339C830.413 366.613 830.539 366.893 830.656 367.179H830.665C830.784 366.893 830.907 366.609 831.034 366.328C831.158 366.052 831.286 365.773 831.417 365.493C831.546 365.217 831.672 364.939 831.795 364.659C831.802 364.633 831.815 364.609 831.832 364.59C831.854 364.576 831.879 364.571 831.905 364.574H833.099C833.11 364.571 833.121 364.572 833.132 364.577C833.142 364.582 833.151 364.591 833.157 364.602C833.162 364.614 833.165 364.627 833.163 364.64C833.162 364.653 833.157 364.665 833.149 364.675L833.145 364.68L833.144 364.68ZM835.824 371.643L835.761 371.644C835.341 371.651 834.926 371.55 834.544 371.346C834.188 371.154 833.891 370.841 833.691 370.448C833.49 370.058 833.387 369.572 833.382 368.991L833.381 368.944C833.378 368.456 833.485 367.975 833.691 367.551C833.898 367.131 834.199 366.785 834.563 366.55L834.594 366.53C834.989 366.275 835.466 366.147 836.025 366.147L836.05 366.148L836.078 366.149L836.109 366.15L836.144 366.153L836.202 366.157L836.269 366.164L836.317 366.169V364.074C836.317 364.024 836.335 364 836.372 364H837.521C837.528 363.998 837.536 363.999 837.543 364.002C837.55 364.005 837.556 364.009 837.562 364.016C837.567 364.022 837.571 364.029 837.573 364.038C837.576 364.046 837.576 364.055 837.575 364.063V370.347C837.575 370.452 837.579 370.566 837.586 370.688L837.603 370.964L837.612 371.123C837.613 371.145 837.608 371.167 837.598 371.186C837.589 371.205 837.574 371.22 837.557 371.229C837.261 371.374 836.952 371.48 836.636 371.548C836.368 371.606 836.096 371.638 835.824 371.643ZM836.317 370.326V367.423C836.268 367.408 836.218 367.397 836.167 367.391C836.105 367.384 836.042 367.38 835.98 367.381C835.759 367.378 835.54 367.436 835.342 367.551C835.148 367.663 834.984 367.831 834.863 368.04C834.743 368.245 834.68 368.513 834.676 368.844L834.676 368.88C834.672 369.111 834.704 369.342 834.772 369.56C834.827 369.736 834.914 369.895 835.027 370.028C835.135 370.15 835.266 370.241 835.41 370.294C835.562 370.351 835.72 370.38 835.879 370.379C835.965 370.379 836.044 370.375 836.117 370.368C836.175 370.363 836.232 370.352 836.289 370.335L836.317 370.326Z" fill="black"/>
<path d="M723.624 271.445C724.693 270.729 725.759 270.007 726.831 269.299C727.849 268.626 729.046 269.246 729.277 270.555C729.41 271.312 729.121 272.13 728.535 272.528C726.613 273.834 724.689 275.135 722.755 276.416C722.156 276.812 721.54 276.739 720.994 276.253C720.44 275.76 720.265 275.08 720.395 274.288C720.544 273.686 720.883 273.283 721.346 272.981C722.112 272.483 722.865 271.958 723.624 271.445Z" fill="url(#paint20_linear_166_12)"/>
<path d="M724.409 270.925C723.343 270.203 722.274 269.488 721.212 268.759C720.203 268.067 720.065 266.548 720.922 265.66C721.417 265.147 722.169 265.031 722.758 265.423C724.689 266.711 726.617 268.004 728.535 269.317C729.129 269.723 729.383 270.383 729.295 271.176C729.206 271.982 728.788 272.499 728.135 272.764C727.613 272.915 727.144 272.774 726.689 272.457C725.936 271.932 725.169 271.434 724.409 270.925Z" fill="url(#paint21_linear_166_12)"/>
<path d="M714.693 270.414C714.009 270.868 713.325 271.32 712.641 271.775C712.242 272.04 711.846 272.315 711.444 272.577C710.635 273.104 709.673 272.795 709.214 271.867C708.776 270.981 709.028 269.833 709.807 269.302C711.714 268.005 713.625 266.717 715.543 265.443C716.131 265.052 716.741 265.101 717.285 265.568C717.86 266.061 718.047 266.755 717.919 267.568C717.839 267.765 717.791 267.995 717.671 268.15C717.476 268.403 717.255 268.644 717.008 268.821C716.246 269.37 715.466 269.886 714.693 270.414Z" fill="url(#paint22_linear_166_12)"/>
<path d="M713.909 270.922C714.587 271.386 715.265 271.851 715.945 272.314C716.342 272.585 716.744 272.847 717.139 273.122C717.935 273.676 718.187 274.801 717.727 275.729C717.288 276.614 716.31 276.934 715.526 276.412C713.609 275.136 711.697 273.85 709.792 272.55C709.208 272.151 708.939 271.51 709.014 270.727C709.093 269.901 709.514 269.364 710.182 269.088C710.368 269.07 710.563 269.003 710.738 269.046C711.023 269.117 711.313 269.22 711.568 269.38C712.356 269.876 713.13 270.406 713.909 270.922Z" fill="url(#paint23_linear_166_12)"/>
<path fill-rule="evenodd" clip-rule="evenodd" d="M127 330.295C123.134 330.295 120 334.211 120 339.041C120 343.871 123.134 347.788 127 347.788C130.866 347.788 134 343.871 134 339.041C134 334.211 130.866 330.295 127 330.295ZM127.082 344.156C124.825 344.156 122.998 341.868 122.998 339.041C122.998 336.215 124.825 333.926 127.082 333.926C128.184 333.926 129.106 334.434 129.813 335.259L128.661 336.701V336.698C128.233 336.186 127.689 335.924 127.082 335.924C125.734 335.924 124.639 337.35 124.639 339.038C124.639 340.726 125.734 342.156 127.082 342.156C128.304 342.156 129.136 341.28 129.308 340.077H127.082V338.082H130.923C130.974 338.425 131.002 338.782 131.002 339.156C131.002 342.079 129.44 344.156 127.082 344.156Z" fill="url(#paint24_linear_166_12)"/>
<path d="M31.2117 398.976H33.101V399.913H32.0018V400.851H33.101V401.788H31.2117V398.976ZM33.4785 398.976H35.3685V399.791H34.2692V399.954H35.3685V401.829H33.4785V400.973H34.5778V400.81H33.4785V398.976ZM35.7467 398.976H37.6353V399.791H36.536V399.954H37.6353V401.829H35.7467V400.973H36.846V400.81H35.7467V398.976Z" fill="url(#paint25_linear_166_12)"/>
<path fill-rule="evenodd" clip-rule="evenodd" d="M34.4935 419.308L29.4784 417.685L28 403.077H41L39.5223 417.683L34.4935 419.308ZM30.9228 409.69L31.0608 411.481H36.3886L36.2102 413.804L34.4957 414.344H34.4942L32.7826 413.805L32.6728 412.377H31.1294L31.3446 415.19L34.4935 416.209L37.6474 415.19L38.0317 410.17L38.0692 409.69L38.3466 406.063H30.6462L30.7863 407.855H36.6623L36.5222 409.69H30.9228Z" fill="url(#paint26_linear_166_12)"/>
<path fill-rule="evenodd" clip-rule="evenodd" d="M82 275.567C82 275.236 82.1107 274.918 82.3077 274.684C82.5047 274.45 82.7719 274.318 83.0505 274.318H93.5224C93.6604 274.318 93.7972 274.35 93.9248 274.413C94.0524 274.475 94.1684 274.567 94.2661 274.683C94.3638 274.799 94.4413 274.937 94.4941 275.089C94.5469 275.24 94.5741 275.403 94.574 275.567V288.014C94.5742 288.178 94.5471 288.341 94.4943 288.492C94.4416 288.644 94.3642 288.782 94.2665 288.898C94.1689 289.014 94.053 289.106 93.9254 289.169C93.7978 289.232 93.661 289.264 93.5229 289.264H83.0505C82.9125 289.264 82.7758 289.232 82.6484 289.169C82.5209 289.106 82.405 289.014 82.3075 288.898C82.2099 288.782 82.1326 288.644 82.0798 288.493C82.027 288.341 81.9999 288.179 82 288.015V275.567ZM86.977 280.017H88.6797V281.033C88.9254 280.449 89.5541 279.923 90.4989 279.923C92.3101 279.923 92.7393 281.087 92.7393 283.222V287.177H90.9064V283.708C90.9064 282.492 90.6606 281.806 90.0365 281.806C89.1706 281.806 88.8105 282.546 88.8105 283.708V287.177H86.977V280.017ZM83.8335 287.084H85.667V279.923H83.8335V287.083V287.084ZM85.9294 277.587C85.9328 277.774 85.9049 277.959 85.8472 278.133C85.7895 278.307 85.7032 278.465 85.5934 278.598C85.4836 278.732 85.3525 278.838 85.2078 278.91C85.063 278.982 84.9076 279.02 84.7506 279.02C84.5935 279.02 84.4381 278.982 84.2934 278.91C84.1486 278.838 84.0175 278.732 83.9077 278.598C83.7979 278.465 83.7116 278.307 83.6539 278.133C83.5962 277.959 83.5683 277.774 83.5718 277.587C83.5785 277.221 83.7057 276.873 83.926 276.616C84.1464 276.36 84.4423 276.217 84.7506 276.217C85.0588 276.217 85.3548 276.36 85.5751 276.616C85.7954 276.873 85.9226 277.221 85.9294 277.587Z" fill="url(#paint27_linear_166_12)"/>
<path d="M140.754 408.43L142.232 410.826L149.714 408.43M132.979 427.089L137.027 422.516L134.591 419.495M140.14 408.43L137.977 410.682L141.616 410.838M131.731 408.431L132.507 410.271L136.79 410.578M134.023 417.971L137.187 411.153L128 410.577M134.391 418.402L137.38 422.111L140.676 418.379L141.698 411.425L137.682 411.186L134.391 418.402Z" fill="url(#paint28_linear_166_12)"/>
<g filter="url(#filter0_d_166_12)">
<path d="M413 311.462V263" stroke="white" stroke-width="8"/>
<path d="M466.379 311.462V263" stroke="white" stroke-width="8"/>
<path d="M413 279.01L433.189 294.491C436.682 297.17 441.515 297.249 445.094 294.688L467 279.01" stroke="white" stroke-width="8"/>
<line x1="439.154" y1="299" x2="439.154" y2="319.769" stroke="white" stroke-width="8"/>
</g>
<defs>
<filter id="filter0_d_166_12" x="409" y="263" width="65.3793" height="60.7692" filterUnits="userSpaceOnUse" color-interpolation-filters="sRGB">
<feFlood flood-opacity="0" result="BackgroundImageFix"/>
<feColorMatrix in="SourceAlpha" type="matrix" values="0 0 0 0 0 0 0 0 0 0 0 0 0 0 0 0 0 0 127 0" result="hardAlpha"/>
<feOffset dx="2" dy="2"/>
<feGaussianBlur stdDeviation="1"/>
<feComposite in2="hardAlpha" operator="out"/>
<feColorMatrix type="matrix" values="0 0 0 0 1 0 0 0 0 1 0 0 0 0 1 0 0 0 1 0"/>
<feBlend mode="normal" in2="BackgroundImageFix" result="effect1_dropShadow_166_12"/>
<feBlend mode="normal" in="SourceGraphic" in2="effect1_dropShadow_166_12" result="shape"/>
</filter>
<linearGradient id="paint0_linear_166_12" x1="523" y1="1" x2="523" y2="221" gradientUnits="userSpaceOnUse">
<stop stop-color="#3D1768"/>
<stop offset="1" stop-color="#3D1768" stop-opacity="0"/>
</linearGradient>
<linearGradient id="paint1_linear_166_12" x1="490.93" y1="6.72528" x2="485.105" y2="229.653" gradientUnits="userSpaceOnUse">
<stop stop-color="#3D1768"/>
<stop offset="1" stop-color="#3D1768" stop-opacity="0"/>
</linearGradient>
<linearGradient id="paint2_linear_166_12" x1="446.116" y1="20.9383" x2="446.116" y2="243.13" gradientUnits="userSpaceOnUse">
<stop stop-color="#3D1768"/>
<stop offset="1" stop-color="#3D1768" stop-opacity="0"/>
</linearGradient>
<linearGradient id="paint3_linear_166_12" x1="364.799" y1="21.5488" x2="369.354" y2="247.069" gradientUnits="userSpaceOnUse">
<stop stop-color="#3D1768"/>
<stop offset="1" stop-color="#3D1768" stop-opacity="0"/>
</linearGradient>
<linearGradient id="paint4_linear_166_12" x1="397.816" y1="19.9764" x2="404.36" y2="255.352" gradientUnits="userSpaceOnUse">
<stop stop-color="#3D1768"/>
<stop offset="1" stop-color="#3D1768" stop-opacity="0"/>
</linearGradient>
<linearGradient id="paint5_linear_166_12" x1="437" y1="25.3483" x2="437" y2="269.211" gradientUnits="userSpaceOnUse">
<stop stop-color="#3D1768"/>
<stop offset="1" stop-color="#3D1768" stop-opacity="0"/>
</linearGradient>
<linearGradient id="paint6_linear_166_12" x1="193" y1="237" x2="193" y2="251.736" gradientUnits="userSpaceOnUse">
<stop stop-color="#693B93" stop-opacity="0.53"/>
<stop offset="1" stop-color="#693B93"/>
</linearGradient>
<radialGradient id="paint7_radial_166_12" cx="0" cy="0" r="1" gradientUnits="userSpaceOnUse" gradientTransform="translate(452 342) rotate(90) scale(165 271)">
<stop stop-color="#763CAC"/>
<stop offset="1" stop-color="#320F85" stop-opacity="0"/>
</radialGradient>
<linearGradient id="paint8_linear_166_12" x1="440" y1="201" x2="440" y2="381" gradientUnits="userSpaceOnUse">
<stop stop-color="#301080" stop-opacity="0.6"/>
<stop offset="1" stop-color="#7840AD" stop-opacity="0.36"/>
</linearGradient>
<linearGradient id="paint9_linear_166_12" x1="440.5" y1="210" x2="440.5" y2="479" gradientUnits="userSpaceOnUse">
<stop stop-opacity="0"/>
<stop offset="0.479167" stop-color="#763CAC"/>
</linearGradient>
<linearGradient id="paint10_linear_166_12" x1="445" y1="210" x2="445" y2="479" gradientUnits="userSpaceOnUse">
<stop stop-opacity="0"/>
<stop offset="0.479167" stop-color="#763CAC"/>
</linearGradient>
<linearGradient id="paint11_linear_166_12" x1="455.5" y1="210" x2="455.5" y2="479" gradientUnits="userSpaceOnUse">
<stop stop-opacity="0"/>
<stop offset="0.479167" stop-color="#763CAC"/>
</linearGradient>
<linearGradient id="paint12_linear_166_12" x1="445" y1="138" x2="445" y2="413" gradientUnits="userSpaceOnUse">
<stop offset="0.197917" stop-opacity="0"/>
<stop offset="1" stop-color="#763CAC"/>
</linearGradient>
<linearGradient id="paint13_linear_166_12" x1="444.5" y1="229" x2="444.5" y2="393" gradientUnits="userSpaceOnUse">
<stop offset="0.197917" stop-opacity="0"/>
<stop offset="1" stop-color="#763CAC"/>
</linearGradient>
<linearGradient id="paint14_linear_166_12" x1="843.047" y1="288.312" x2="843.047" y2="309.18" gradientUnits="userSpaceOnUse">
<stop stop-color="#693B93" stop-opacity="0.53"/>
<stop offset="1" stop-color="#693B93"/>
</linearGradient>
<linearGradient id="paint15_linear_166_12" x1="843.042" y1="296.565" x2="843.042" y2="300.931" gradientUnits="userSpaceOnUse">
<stop stop-color="#693B93" stop-opacity="0.53"/>
<stop offset="1" stop-color="#693B93"/>
</linearGradient>
<linearGradient id="paint16_linear_166_12" x1="777.5" y1="257.991" x2="777.5" y2="273.152" gradientUnits="userSpaceOnUse">
<stop stop-color="#693B93" stop-opacity="0.53"/>
<stop offset="1" stop-color="#693B93"/>
</linearGradient>
<linearGradient id="paint17_linear_166_12" x1="887" y1="340.791" x2="887" y2="362.948" gradientUnits="userSpaceOnUse">
<stop stop-color="#693B93" stop-opacity="0.53"/>
<stop offset="1" stop-color="#693B93"/>
</linearGradient>
<linearGradient id="paint18_linear_166_12" x1="771.5" y1="428.254" x2="771.5" y2="447.496" gradientUnits="userSpaceOnUse">
<stop stop-color="#693B93" stop-opacity="0.53"/>
<stop offset="1" stop-color="#693B93"/>
</linearGradient>
<linearGradient id="paint19_linear_166_12" x1="832.795" y1="360.615" x2="832.795" y2="376.068" gradientUnits="userSpaceOnUse">
<stop stop-color="#693B93" stop-opacity="0.53"/>
<stop offset="1" stop-color="#693B93"/>
</linearGradient>
<linearGradient id="paint20_linear_166_12" x1="724.832" y1="269.025" x2="724.832" y2="276.671" gradientUnits="userSpaceOnUse">
<stop stop-color="#693B93" stop-opacity="0.53"/>
<stop offset="1" stop-color="#693B93"/>
</linearGradient>
<linearGradient id="paint21_linear_166_12" x1="724.835" y1="265.189" x2="724.835" y2="272.825" gradientUnits="userSpaceOnUse">
<stop stop-color="#693B93" stop-opacity="0.53"/>
<stop offset="1" stop-color="#693B93"/>
</linearGradient>
<linearGradient id="paint22_linear_166_12" x1="713.479" y1="265.181" x2="713.479" y2="272.833" gradientUnits="userSpaceOnUse">
<stop stop-color="#693B93" stop-opacity="0.53"/>
<stop offset="1" stop-color="#693B93"/>
</linearGradient>
<linearGradient id="paint23_linear_166_12" x1="713.479" y1="269.032" x2="713.479" y2="276.664" gradientUnits="userSpaceOnUse">
<stop stop-color="#693B93" stop-opacity="0.53"/>
<stop offset="1" stop-color="#693B93"/>
</linearGradient>
<linearGradient id="paint24_linear_166_12" x1="127" y1="330.295" x2="127" y2="347.788" gradientUnits="userSpaceOnUse">
<stop stop-color="#693B93" stop-opacity="0.53"/>
<stop offset="1" stop-color="#693B93"/>
</linearGradient>
<linearGradient id="paint25_linear_166_12" x1="34.4235" y1="398.976" x2="34.4235" y2="401.829" gradientUnits="userSpaceOnUse">
<stop stop-color="#693B93" stop-opacity="0.53"/>
<stop offset="1" stop-color="#693B93"/>
</linearGradient>
<linearGradient id="paint26_linear_166_12" x1="34.5" y1="403.077" x2="34.5" y2="419.308" gradientUnits="userSpaceOnUse">
<stop stop-color="#693B93" stop-opacity="0.53"/>
<stop offset="1" stop-color="#693B93"/>
</linearGradient>
<linearGradient id="paint27_linear_166_12" x1="88.287" y1="274.318" x2="88.287" y2="289.264" gradientUnits="userSpaceOnUse">
<stop stop-color="#693B93" stop-opacity="0.53"/>
<stop offset="1" stop-color="#693B93"/>
</linearGradient>
<linearGradient id="paint28_linear_166_12" x1="138.857" y1="408.43" x2="138.857" y2="427.089" gradientUnits="userSpaceOnUse">
<stop stop-color="#693B93" stop-opacity="0.53"/>
<stop offset="1" stop-color="#693B93"/>
</linearGradient>
</defs>
</svg>
